<svg xmlns="http://www.w3.org/2000/svg" xmlns:xlink="http://www.w3.org/1999/xlink" width="500" zoomAndPan="magnify" viewBox="0 0 375 374.999991" height="500" preserveAspectRatio="xMidYMid meet" version="1.0"><path fill="#409321" d="M 374.996094 187.492188 C 374.996094 291.042969 291.046875 374.988281 187.496094 374.988281 C 83.945312 374.988281 0 291.042969 0 187.492188 C 0 83.941406 83.945312 -0.00390625 187.496094 -0.00390625 C 291.046875 -0.00390625 374.996094 83.941406 374.996094 187.492188 " fill-opacity="1" fill-rule="nonzero"/><path fill="#ffffff" d="M 105.335938 97.542969 C 107.296875 95.136719 112.316406 89.660156 118.964844 89.730469 C 119.339844 89.734375 119.777344 89.75 120.285156 89.800781 C 120.285156 89.800781 121.335938 89.914062 122.371094 90.1875 C 131.003906 92.484375 146.445312 109.523438 146.445312 109.523438 C 159.632812 124.070312 163.4375 124.769531 163.398438 130.128906 C 163.355469 135.144531 160.222656 139.023438 154.421875 144.808594 C 138.949219 160.230469 135.648438 161.390625 134.449219 166.222656 C 133.742188 169.058594 131.609375 174.566406 141.164062 185.234375 C 155.414062 201.136719 189.542969 233.613281 192.527344 235.601562 C 195.507812 237.589844 206.113281 244.546875 220.363281 231.625 C 230.089844 222.804688 234.722656 212.433594 241.636719 211.808594 C 245.296875 211.46875 247.988281 213.679688 253.5 218.371094 C 286.078125 246.082031 286.558594 250.945312 286.285156 253.820312 C 285.820312 258.796875 283.570312 263.285156 276.03125 268.742188 C 256.8125 282.65625 248.199219 294.917969 209.097656 278.683594 C 169.996094 262.441406 128.902344 221.355469 117.304688 203.789062 C 105.707031 186.226562 87.480469 159.386719 88.808594 140.828125 C 89.730469 127.917969 93.683594 116.632812 93.683594 116.632812 C 97.214844 107.851562 101.914062 101.503906 105.335938 97.542969 " fill-opacity="1" fill-rule="nonzero"/></svg>